<svg width="197" height="52" viewBox="0 0 197 52" fill="none" xmlns="http://www.w3.org/2000/svg">
<g clip-path="url(#clip0_893_107)">
<path fill-rule="evenodd" clip-rule="evenodd" d="M34 0C25.1667 0 18 4.16667 18 13V40C26.8333 40 34 32.8333 34 24V0ZM0 24C0 32.8333 7.16667 40 16 40V8C7.16667 8 0 15.1667 0 24ZM84.76 40.7876C83.9266 40.7876 83.0623 40.695 82.1671 40.5405C79.1421 39.9537 76.6109 38.4093 74.6971 35.9382C70.6842 30.8108 71.1472 23.4595 75.7774 18.888C78.1851 16.5097 81.5498 15.1815 84.9761 15.2432C87.7851 15.305 90.4089 16.3243 92.5388 18.1158V4H97.4776V40.2934H92.5696V37.8224C90.2237 39.7992 87.5999 40.7876 84.76 40.7876ZM84.7291 20.3398C82.5993 20.3398 80.6237 21.1429 79.1421 22.6255C77.6913 24.0463 76.8887 25.9614 76.8887 27.9691C76.8887 30.0077 77.6604 31.8919 79.1112 33.3436C80.5928 34.8263 82.5684 35.6602 84.7291 35.6602C89.0198 35.6602 92.5079 32.2317 92.5079 28.0309C92.5387 23.8301 89.0507 20.3707 84.76 20.3398H84.7291ZM132.846 52H127.938V15.7066H132.846V18.0849C135.593 15.7066 138.557 15.2124 140.686 15.2432C144.298 15.2741 147.91 16.8494 150.132 19.3514C154.423 24.2008 154.546 31.4595 150.441 36.2471C148.033 39.0579 144.946 40.5714 141.273 40.7568C138.124 40.9112 135.315 39.9228 132.877 37.8224V52H132.846ZM140.686 20.3398C138.557 20.3398 136.55 21.1737 135.068 22.6564C133.648 24.1081 132.846 25.9923 132.846 28C132.846 32.2625 136.272 35.6293 140.625 35.6602C142.755 35.6911 144.73 34.8571 146.212 33.4054C147.663 31.9537 148.465 30.0386 148.465 28C148.465 23.7683 144.977 20.3398 140.686 20.3398ZM48.4162 37.6371C50.7313 39.6757 53.6946 40.7259 56.6271 40.7259C58.5718 40.7259 60.5164 40.2626 62.2759 39.2741C63.0785 38.8108 63.8502 38.2548 64.5601 37.6988V40.2934H69.5916V36.5251V28.0309C69.5608 26.0541 69.2212 24.3243 68.4804 22.749C65.9801 17.4054 60.7943 14.5637 54.9293 15.305C49.1879 16.0154 44.4033 21.0811 44.0329 26.7954C43.7551 31.2124 45.2368 34.8571 48.4162 37.6371ZM56.7505 20.1236C54.6515 20.1236 52.7068 20.9266 51.2252 22.4093C49.7435 23.8919 48.9409 25.8378 48.9409 27.9382C48.9409 32.3243 52.3982 35.7529 56.7814 35.7529C61.0721 35.7529 64.5602 32.2626 64.5602 27.9382C64.5602 23.6448 61.0721 20.1544 56.7505 20.1236ZM112.217 40.7259C109.285 40.7259 106.321 39.6757 104.006 37.6371C100.827 34.8571 99.3451 31.2124 99.6229 26.7954C99.9933 21.0811 104.778 16.0154 110.519 15.305C116.384 14.5637 121.57 17.4054 124.07 22.749C124.811 24.3243 125.151 26.0541 125.182 28.0309V36.5251V40.2934H120.15V37.6988C119.44 38.2548 118.668 38.8108 117.866 39.2741C116.106 40.2626 114.162 40.7259 112.217 40.7259ZM106.815 22.4093C108.297 20.9266 110.242 20.1236 112.341 20.1236C116.662 20.1544 120.15 23.6448 120.15 27.9382C120.15 32.2626 116.662 35.7529 112.371 35.7529C107.988 35.7529 104.531 32.3243 104.531 27.9382C104.531 25.8378 105.334 23.8919 106.815 22.4093ZM172.289 52H172.536H172.628C172.721 51.9691 172.814 51.9691 172.906 51.9691C173.019 51.9588 173.133 51.952 173.246 51.9451C173.472 51.9314 173.698 51.9176 173.925 51.8765C178.185 51.166 181.364 48.8185 183.309 44.8649L196.798 17.6834L192.322 15.4286L183.926 32.3243L175.468 15.4286L171.023 17.5907L171.394 18.3938C171.424 18.471 171.463 18.5483 171.502 18.6255C171.54 18.7027 171.579 18.7799 171.61 18.8571L172.937 21.5135C174.073 23.7743 175.221 26.0747 176.375 28.3881C177.917 31.4792 179.471 34.5941 181.024 37.668C181.148 37.9151 181.148 38.0077 181.024 38.2548C180.314 39.6448 179.574 41.1583 178.771 42.8571C177.907 44.6795 176.456 45.9151 174.48 46.5946C174.042 46.7495 173.603 46.8397 173.129 46.9372L172.992 46.9654C172.943 46.9755 172.894 46.9857 172.844 46.9961C172.597 47.0579 172.32 47.1197 172.042 47.1815L171.548 47.305V51.9691L172.134 52H172.289ZM164.498 40.695C163.788 40.695 163.047 40.5714 162.306 40.3552C159.528 39.5521 157.707 37.6062 156.997 34.7336C156.843 34.1158 156.781 33.4363 156.781 32.5405V23.7683V20.6178H154.25V15.6757H156.781V6.31659H161.751V15.6448H168.758V20.6486H161.781V23.5212V32.9112C161.781 33.8069 162.09 34.5483 162.677 35.0734C163.232 35.5367 163.973 35.7529 164.776 35.6602C165.115 35.6293 165.516 35.444 165.918 35.2587L166.566 34.9807L166.936 34.8262L170.116 38.1622L169.653 38.5946C168.109 39.9846 166.381 40.695 164.498 40.695Z" fill="#7018FF"/>
</g>
<defs>
<clipPath id="clip0_893_107">
<rect width="197" height="52" fill="white"/>
</clipPath>
</defs>
</svg>
